<?xml version="1.0" standalone="no"?>
<!DOCTYPE svg PUBLIC "-//W3C//DTD SVG 20010904//EN"
 "http://www.w3.org/TR/2001/REC-SVG-20010904/DTD/svg10.dtd">
<svg version="1.0" xmlns="http://www.w3.org/2000/svg"
 width="1024.000000pt" height="1024.000000pt" viewBox="0 0 1024.000000 1024.000000"
 preserveAspectRatio="xMidYMid meet">

<g transform="translate(0.000000,1024.000000) scale(0.100000,-0.100000)"
fill="#000000" stroke="none">
<path d="M6265 9374 c-22 -9 -71 -25 -110 -36 -38 -10 -97 -31 -130 -44 -33
-14 -91 -34 -129 -45 -38 -11 -81 -26 -96 -34 -30 -15 -158 -62 -290 -105
-146 -48 -260 -110 -334 -184 -17 -18 -47 -63 -66 -101 l-35 -70 2 -140 c1
-77 6 -180 13 -230 21 -169 29 -275 24 -290 -13 -32 -61 -44 -225 -55 -90 -6
-204 -15 -254 -20 -49 -5 -184 -16 -300 -25 -115 -9 -268 -21 -339 -27 -149
-13 -166 -22 -166 -87 0 -56 -7 -69 -50 -91 -21 -11 -40 -26 -43 -34 -3 -8 -2
-61 2 -117 7 -89 11 -105 31 -121 12 -10 28 -18 35 -18 21 0 41 -33 64 -105
19 -60 91 -215 141 -306 54 -97 210 -289 350 -429 132 -132 237 -219 365 -305
122 -81 168 -130 194 -207 28 -83 26 -141 -7 -235 -47 -132 -86 -181 -263
-327 -200 -166 -341 -402 -445 -749 -20 -67 -34 -141 -60 -307 -3 -19 -17 -57
-31 -85 -22 -42 -25 -58 -20 -110 12 -124 11 -124 311 -101 127 9 278 21 336
27 58 5 195 16 305 24 437 31 619 46 835 65 124 11 311 27 415 35 105 9 237
20 295 25 101 10 382 29 427 30 12 0 35 12 52 26 28 24 31 31 31 87 0 53 -5
70 -36 119 -23 38 -38 79 -45 119 -5 34 -18 81 -28 103 -10 23 -22 52 -26 66
-15 51 -107 220 -156 287 -92 126 -173 224 -234 281 -144 137 -247 223 -335
282 -225 151 -280 218 -280 345 0 76 26 133 82 186 127 120 231 227 244 252 8
15 19 27 24 27 5 0 20 15 32 33 157 232 154 228 239 391 82 160 188 494 189
594 0 52 22 93 61 116 34 20 32 13 29 136 -2 113 -12 133 -74 149 -52 13 -54
16 -64 72 -11 65 -40 81 -122 69 -36 -5 -97 -10 -136 -10 -39 0 -117 -6 -175
-14 -57 -8 -196 -20 -309 -26 -113 -6 -282 -20 -376 -31 -207 -23 -248 -24
-264 -4 -12 15 -19 64 -40 280 -5 55 -14 115 -19 134 -6 19 -11 71 -12 115 -2
95 17 142 78 192 54 44 137 94 157 94 8 0 46 13 83 29 38 16 149 55 248 86 99
32 189 63 200 70 11 7 45 18 74 24 30 6 68 20 85 30 17 10 62 26 100 36 73 18
103 32 110 52 7 18 -33 126 -52 141 -20 15 -38 15 -87 -4z m353 -1710 c19 -6
22 -13 22 -60 0 -30 -9 -80 -19 -112 -11 -31 -23 -75 -27 -97 -7 -42 -42 -140
-92 -260 -41 -99 -173 -331 -202 -355 -3 -3 -32 -41 -65 -85 -32 -44 -121
-142 -197 -218 -142 -141 -162 -169 -187 -271 -22 -88 11 -193 88 -283 24 -29
96 -89 160 -135 194 -137 336 -261 447 -388 41 -47 85 -97 98 -111 13 -14 31
-39 39 -55 9 -17 23 -37 32 -44 9 -7 24 -30 35 -49 10 -20 30 -58 44 -85 31
-58 33 -87 8 -109 -30 -28 -112 -59 -206 -78 -82 -18 -105 -18 -231 -9 -143
12 -160 14 -305 48 -103 23 -308 92 -370 124 -25 13 -79 46 -120 73 -215 143
-443 248 -600 276 -41 8 -135 14 -208 14 l-133 0 6 25 c8 32 44 70 120 128
149 114 242 244 281 391 17 66 18 104 3 189 -20 114 -79 182 -274 317 -220
152 -468 405 -624 637 -75 112 -163 301 -159 341 l3 32 180 12 c99 7 250 19
335 27 85 9 220 20 300 26 80 6 222 17 315 25 94 8 251 19 350 25 174 11 265
18 485 41 58 6 224 21 370 34 146 12 267 23 270 24 3 0 15 -2 28 -5z"/>
<path d="M4780 6960 c-36 -4 -81 -14 -100 -22 -19 -9 -48 -21 -64 -27 -24 -10
-27 -15 -22 -39 22 -88 96 -198 202 -295 58 -54 97 -79 186 -121 167 -79 262
-101 428 -101 124 0 256 15 305 35 94 37 153 65 170 80 11 10 35 25 53 34 37
19 59 61 42 81 -8 9 -27 12 -63 8 -51 -5 -124 9 -226 43 -46 16 -116 60 -170
109 -57 52 -67 59 -102 79 -207 118 -409 161 -639 136z"/>
<path d="M5318 6085 c-45 -30 -60 -90 -33 -131 33 -50 54 -64 96 -64 77 0 148
101 107 151 -26 30 -87 69 -110 69 -13 0 -40 -11 -60 -25z"/>
<path d="M5677 5729 c-27 -16 -39 -55 -25 -84 20 -45 93 -47 117 -4 21 37 8
75 -30 88 -38 13 -39 13 -62 0z"/>
<path d="M5020 3512 c-53 -5 -60 -22 -60 -143 0 -134 3 -139 103 -139 95 0
145 -14 152 -43 4 -13 4 -319 1 -682 -5 -661 0 -992 15 -1017 6 -9 47 -14 151
-16 128 -3 146 -2 166 15 l23 18 -1 844 c0 614 3 847 11 857 8 10 35 14 85 14
74 0 123 12 136 33 4 7 8 60 8 119 0 101 -1 108 -22 122 -19 12 -88 15 -378
18 -195 2 -371 2 -390 0z"/>
<path d="M6180 3490 c-11 -11 -20 -32 -20 -46 0 -14 -9 -69 -20 -122 -10 -54
-26 -155 -35 -227 -8 -71 -21 -166 -29 -210 -28 -156 -35 -201 -51 -320 -9
-66 -24 -172 -35 -235 -11 -63 -24 -149 -29 -190 -6 -41 -18 -120 -27 -175
-37 -232 -61 -431 -54 -450 17 -43 34 -48 168 -46 168 3 163 -2 186 181 10 76
24 147 31 157 12 16 28 18 152 15 76 -2 144 -8 151 -14 6 -6 12 -25 13 -42 0
-17 8 -82 17 -145 22 -148 30 -156 170 -157 115 -1 168 10 182 36 7 13 4 47
-9 117 -11 54 -22 123 -26 153 -3 30 -15 100 -25 155 -23 121 -68 396 -86 520
-6 50 -19 126 -27 170 -9 44 -20 118 -26 164 -6 46 -15 89 -20 95 -5 6 -16 72
-25 146 -9 74 -23 167 -31 205 -8 39 -22 111 -30 160 -21 129 -13 125 -251
125 -181 0 -195 -1 -214 -20z m250 -654 c0 -37 26 -220 40 -281 5 -22 10 -60
10 -85 0 -25 7 -81 15 -125 30 -162 38 -225 31 -232 -12 -12 -186 -14 -208 -2
-16 9 -19 18 -15 52 3 23 12 107 21 187 38 351 48 413 82 518 7 24 24 2 24
-32z"/>
<path d="M7170 3490 c-20 -20 -20 -29 -15 -1001 3 -588 9 -988 15 -999 5 -9
24 -20 41 -24 17 -3 177 -6 355 -6 l323 0 21 28 c21 25 22 34 16 132 -8 145 0
140 -221 140 -126 0 -175 3 -183 13 -7 8 -11 287 -13 852 -2 826 -3 840 -22
863 -19 21 -28 22 -159 22 -125 0 -140 -2 -158 -20z"/>
<path d="M8102 3498 c-12 -6 -25 -21 -28 -32 -2 -12 -3 -459 -2 -995 l3 -974
25 -18 c20 -14 51 -18 159 -22 125 -4 135 -2 158 17 l24 21 -1 345 c0 190 4
359 9 375 5 17 10 25 10 19 1 -6 14 -30 30 -55 16 -24 33 -62 37 -84 3 -22 15
-56 24 -75 10 -19 25 -59 34 -89 16 -56 57 -163 81 -216 8 -16 21 -52 29 -80
25 -83 56 -144 81 -161 19 -12 54 -16 152 -17 144 -2 172 3 191 34 12 18 10
28 -12 74 -15 29 -33 72 -40 96 -35 107 -173 468 -186 484 -4 6 -11 26 -14 45
-4 19 -16 55 -26 80 -52 123 -80 205 -80 236 0 19 11 60 24 92 13 31 40 106
61 167 21 60 41 116 45 125 5 8 17 42 28 75 11 33 24 74 30 90 49 130 132 379
132 393 0 10 -7 28 -16 40 -14 21 -22 22 -150 22 -100 0 -142 -4 -164 -15 -32
-17 -34 -22 -136 -325 -19 -58 -44 -123 -54 -145 -11 -22 -24 -62 -30 -90 -6
-27 -15 -54 -19 -60 -4 -5 -18 -38 -31 -73 -12 -35 -26 -60 -31 -55 -4 4 -9
168 -11 363 -4 438 13 400 -180 399 -74 0 -143 -5 -156 -11z"/>
<path d="M1629 3486 c-21 -10 -25 -20 -29 -89 -6 -91 3 -136 28 -138 9 -1 58
-2 109 -3 61 -1 96 -5 105 -14 10 -10 13 -178 13 -863 0 -839 0 -851 20 -865
30 -23 252 -16 269 8 10 13 12 204 11 859 -1 875 -1 867 38 870 7 0 46 2 88 2
105 3 109 7 109 123 0 79 -3 95 -17 102 -29 15 -716 22 -744 8z"/>
<path d="M2700 3493 c-35 -2 -70 -9 -77 -15 -11 -8 -13 -197 -13 -973 0 -904
1 -965 18 -985 16 -20 26 -22 146 -22 70 0 132 4 138 10 5 5 8 79 7 178 -6
383 -4 491 9 506 10 12 10 23 -1 54 -10 30 -14 175 -16 624 -2 535 -4 586 -19
601 -19 19 -94 27 -192 22z"/>
<path d="M3392 3493 c-82 -3 -94 -6 -106 -26 -20 -31 -23 -1939 -3 -1955 19
-16 273 -20 289 -4 10 10 12 97 11 401 -3 402 0 431 38 416 14 -5 69 -130 69
-158 0 -12 59 -166 81 -212 13 -28 67 -181 83 -236 8 -26 28 -83 47 -127 42
-103 50 -107 207 -99 147 8 151 11 123 98 -45 140 -78 235 -89 254 -13 21 -80
201 -114 300 -11 33 -28 78 -38 100 -11 22 -27 67 -36 100 -8 33 -23 68 -32
79 -24 26 -23 158 0 204 9 18 24 58 33 90 9 31 22 66 30 78 7 11 20 45 28 75
8 29 29 92 47 139 33 88 49 132 120 333 33 94 39 121 30 133 -16 19 -257 21
-283 2 -19 -14 -52 -99 -98 -248 -16 -52 -34 -103 -40 -114 -14 -24 -68 -170
-82 -221 -20 -75 -79 -230 -91 -237 -6 -4 -18 -1 -26 8 -13 13 -15 72 -15 412
l0 396 -25 13 c-14 7 -34 12 -45 11 -11 -1 -62 -4 -113 -5z"/>
<path d="M4469 2953 c-10 -11 -14 -48 -14 -132 0 -113 1 -116 25 -128 37 -19
243 -17 280 2 l30 16 0 109 c0 152 2 150 -174 150 -112 0 -136 -3 -147 -17z"/>
<path d="M4505 2093 c-48 -12 -55 -30 -54 -142 1 -155 -3 -151 168 -151 170 0
169 -1 171 120 3 148 4 146 -34 164 -25 12 -61 16 -133 15 -54 -1 -107 -4
-118 -6z"/>
<path d="M3303 1129 c-15 -5 -23 -17 -23 -32 0 -32 22 -49 57 -45 25 3 28 7
28 37 0 38 -25 54 -62 40z"/>
<path d="M4010 1101 c-16 -31 -13 -453 3 -475 23 -31 51 -16 61 32 13 55 31
54 88 -4 35 -35 53 -46 79 -47 30 -2 34 1 37 25 3 22 -7 37 -46 75 -27 26 -57
63 -66 81 l-17 32 67 64 c51 49 65 69 62 87 -5 39 -49 37 -95 -4 -44 -39 -84
-67 -95 -67 -5 0 -8 38 -8 84 0 47 -4 96 -10 110 -11 31 -45 35 -60 7z"/>
<path d="M6621 1094 c-20 -25 -21 -39 -21 -234 0 -195 1 -209 21 -234 11 -14
29 -26 39 -26 32 0 43 38 41 142 -1 72 2 106 14 127 28 54 83 66 140 31 29
-18 33 -26 39 -81 3 -34 6 -90 6 -124 0 -75 15 -101 54 -91 40 10 48 43 40
170 -8 126 -20 160 -78 205 -43 35 -101 41 -163 19 -42 -15 -53 -3 -53 58 0
66 -41 86 -79 38z"/>
<path d="M2452 1095 l-23 -17 3 -224 c2 -166 6 -226 16 -236 9 -9 47 -13 130
-13 112 0 119 1 167 29 67 40 113 90 119 129 22 141 12 204 -42 260 -59 63
-100 77 -229 83 -101 5 -121 3 -141 -11z m227 -73 c55 -21 121 -108 121 -159
0 -79 -55 -149 -137 -175 -77 -24 -95 -23 -127 7 l-27 25 3 151 c2 120 6 152
18 159 23 15 100 11 149 -8z"/>
<path d="M3070 996 c-86 -15 -90 -23 -89 -201 1 -151 8 -175 54 -175 31 0 35
16 35 134 0 118 11 141 81 176 43 23 52 52 20 70 -11 5 -23 9 -28 9 -4 -1 -37
-7 -73 -13z"/>
<path d="M3625 1000 c-16 -4 -49 -8 -72 -9 -31 -1 -45 -6 -53 -20 -11 -21 -14
-308 -4 -335 7 -19 57 -21 71 -3 6 6 13 60 16 118 3 68 10 116 21 137 19 37
20 37 69 46 35 7 41 4 78 -32 l39 -40 0 -100 c0 -108 12 -152 41 -152 34 0 41
36 37 175 -3 132 -3 134 -32 164 -54 56 -124 73 -211 51z"/>
<path d="M4474 1002 c-11 -4 -38 -22 -59 -40 -35 -28 -40 -37 -39 -73 2 -54
30 -82 118 -116 89 -34 98 -40 94 -72 -4 -38 -62 -41 -113 -7 -49 34 -83 34
-91 1 -13 -52 59 -98 157 -99 69 0 69 0 115 44 41 41 45 48 39 80 -9 49 -33
69 -128 111 -68 30 -82 40 -82 59 0 49 58 51 114 4 39 -33 75 -29 79 8 5 39
-12 63 -61 87 -42 20 -101 26 -143 13z"/>
<path d="M5207 1000 c-16 -5 -35 -14 -43 -21 -11 -9 -21 -9 -40 0 -34 15 -50
14 -68 -5 -14 -14 -16 -49 -15 -252 0 -131 3 -245 6 -255 2 -9 13 -22 25 -28
15 -8 24 -7 39 7 15 14 19 31 19 85 0 96 4 102 46 77 53 -31 149 -22 206 19
63 45 93 103 92 180 -1 52 -7 68 -33 105 -17 24 -46 53 -64 65 -36 25 -126 37
-170 23z m127 -100 c25 -23 35 -41 41 -76 9 -65 -1 -95 -42 -128 -56 -46 -106
-38 -175 27 -22 20 -28 35 -28 68 0 112 124 179 204 109z"/>
<path d="M5665 990 c-56 -31 -82 -56 -106 -106 -40 -83 -6 -195 77 -259 36
-28 46 -30 120 -30 69 0 86 3 116 25 44 30 72 74 64 102 -3 12 4 42 15 68 23
53 18 77 -28 136 -35 46 -89 73 -160 80 -48 4 -65 1 -98 -16z m149 -81 c30
-24 35 -65 9 -72 -10 -3 -49 -2 -88 1 -61 6 -70 10 -73 28 -2 15 7 28 30 43
42 26 88 27 122 0z m44 -163 c11 -6 6 -16 -19 -42 -28 -29 -40 -34 -77 -34
-70 0 -130 54 -86 78 20 11 164 10 182 -2z"/>
<path d="M6170 994 c-25 -8 -54 -12 -66 -9 -15 3 -24 -2 -32 -21 -15 -31 -16
-302 -2 -339 9 -23 14 -26 38 -20 50 12 55 25 56 142 1 125 13 154 71 173 43
14 59 55 30 77 -23 16 -36 15 -95 -3z"/>
<path d="M8265 1000 c-11 -5 -40 -9 -65 -9 -25 -1 -50 -5 -57 -9 -24 -15 -33
-66 -33 -185 0 -118 11 -190 30 -202 13 -8 80 22 81 37 1 7 2 61 3 119 1 117
11 141 64 154 15 4 33 11 39 17 18 14 16 53 -3 72 -17 18 -29 19 -59 6z"/>
<path d="M7185 968 c-83 -55 -111 -144 -81 -250 17 -58 43 -85 111 -121 35
-18 114 -20 165 -5 48 14 98 63 126 123 29 61 30 85 5 150 -13 34 -34 63 -66
90 -45 39 -50 40 -129 43 -78 4 -83 3 -131 -30z m204 -89 c61 -60 55 -130 -16
-184 -25 -19 -54 -35 -65 -35 -27 0 -69 23 -98 55 -21 22 -25 36 -24 83 2 49
5 59 33 84 26 23 40 28 85 28 47 0 58 -4 85 -31z"/>
<path d="M3310 983 c-8 -3 -18 -11 -22 -17 -12 -17 -9 -305 2 -327 14 -26 66
-26 80 0 5 11 10 85 10 170 0 123 -3 152 -16 165 -16 17 -28 18 -54 9z"/>
<path d="M7625 966 c-14 -20 -15 -44 -11 -130 7 -143 17 -177 69 -221 42 -37
42 -37 112 -30 39 3 99 8 134 10 36 3 68 8 73 13 10 10 12 330 3 354 -4 9 -20
20 -37 23 -52 12 -60 -8 -63 -137 -2 -128 -11 -153 -60 -174 -41 -17 -75 -7
-110 33 -21 26 -23 37 -24 135 0 59 -5 117 -11 128 -15 28 -56 26 -75 -4z"/>
</g>
</svg>
